<svg width="22" height="14" viewBox="0 0 22 14" fill="none" xmlns="http://www.w3.org/2000/svg">
<path d="M4.88889 13.4167C6.24556 13.4167 7.33333 12.2733 7.33333 10.8474C7.33333 9.42149 6.24556 8.27818 4.88889 8.27818C3.53222 8.27818 2.44444 9.42149 2.44444 10.8474C2.44444 12.2733 3.53222 13.4167 4.88889 13.4167ZM4.88889 12.132C4.20444 12.132 3.66667 11.5668 3.66667 10.8474C3.66667 10.128 4.20444 9.5628 4.88889 9.5628C5.57333 9.5628 6.11111 10.128 6.11111 10.8474C6.11111 11.5668 5.57333 12.132 4.88889 12.132ZM6.62444 11.4897H15.5467V10.2051H6.62444V11.4897ZM17.1111 13.4167C18.4678 13.4167 19.5556 12.2733 19.5556 10.8474C19.5556 9.42149 18.4678 8.27818 17.1111 8.27818C15.7544 8.27818 14.6667 9.42149 14.6667 10.8474C14.6667 12.2733 15.7544 13.4167 17.1111 13.4167ZM17.1111 12.132C16.4267 12.132 15.8889 11.5668 15.8889 10.8474C15.8889 10.128 16.4267 9.5628 17.1111 9.5628C17.7956 9.5628 18.3333 10.128 18.3333 10.8474C18.3333 11.5668 17.7956 12.132 17.1111 12.132ZM0 11.4897H1.22222V7.54595C1.22222 6.95503 1.33222 6.42833 1.63778 6.00441L3.66667 3.15256C4.27778 2.29186 4.93778 1.85509 6.14778 1.85509H11.0122C12.8211 1.85509 13.4444 2.48456 14.5567 3.92333L16.0722 5.90164L18.92 6.35126C20.3744 6.58249 20.7778 7.14772 20.7778 8.41949V11.4897H22V8.41949C22 6.32556 21.3522 5.47772 19.3478 5.14372L16.8911 4.73264L15.6444 3.1911C14.2022 1.41832 13.2978 0.583322 11.0489 0.583322H6.14778C4.51 0.583322 3.53222 1.26417 2.56667 2.57448L0.525556 5.40064C0.158889 5.91449 0 6.62103 0 7.50741V11.4897Z" fill="white"/>
</svg>
