<?xml version="1.0" encoding="UTF-8"?>
<svg width="18px" height="20px" viewBox="0 0 18 20" version="1.1" xmlns="http://www.w3.org/2000/svg" xmlns:xlink="http://www.w3.org/1999/xlink">
    <!-- Generator: Sketch 52.6 (67491) - http://www.bohemiancoding.com/sketch -->
    <title>Profile</title>
    <desc>Created with Sketch.</desc>
    <g id="Deuxième-itération" stroke="none" stroke-width="1" fill="none" fill-rule="evenodd" stroke-linecap="round" stroke-linejoin="round">
        <g id="Artboard-2" transform="translate(-158.000000, -291.000000)" stroke="#000000" stroke-width="2">
            <g id="Profile" transform="translate(159.000000, 292.000000)">
                <g id="Vector-1" transform="translate(4.000000, 0.000000)">
                    <path d="M4,8 C6.20914,8 8,6.20914 8,4 C8,1.79086 6.20914,0 4,0 C1.79086,0 0,1.79086 0,4 C0,6.20914 1.79086,8 4,8 Z" id="Path"></path>
                </g>
                <g id="Vector" transform="translate(0.000000, 12.000000)">
                    <path d="M16,6 L16,4 C16,2.93913 15.5786,1.92172 14.8284,1.17157 C14.0783,0.42143 13.0609,0 12,0 L4,0 C2.93913,0 1.92172,0.42143 1.17157,1.17157 C0.42143,1.92172 0,2.93913 0,4 L0,6" id="Path"></path>
                </g>
            </g>
        </g>
    </g>
</svg>